<svg id="Layer_1" data-name="Layer 1" xmlns="http://www.w3.org/2000/svg" viewBox="0 0 360 360"><defs><style>.cls-1{fill:#fff;}</style></defs><title>carolo-01</title><path class="cls-1" d="M154.34,34.81c-.77,2.68-3.1,5-7.17,5-5.21,0-7.79-3.59-7.79-7.86s2.91-8,7.84-8,6.73,3,7.11,5.11h-2.26a4.76,4.76,0,0,0-4.92-3.2c-3.36,0-5.45,2.51-5.45,6,0,3.34,2,6,5.47,6a4.9,4.9,0,0,0,4.92-3.09Z"/><path class="cls-1" d="M170.85,35.83c0,1.31.09,3.21.14,3.57h-2.16a17.93,17.93,0,0,1-.17-2.35c-.79,1.64-2.48,2.77-5.77,2.77-4.28,0-5.81-2.6-5.81-4.8,0-3.82,3.5-4.87,7.75-4.87h3.81v-.9c0-1.76-.76-3.46-4.25-3.46-3.12,0-3.86,1.41-4.19,2.94h-2.26c.2-2,1.54-4.76,6.46-4.76,5.15,0,6.45,2.55,6.45,5Zm-2.21-4h-3.75c-3.75,0-5.56.8-5.56,3,0,1.65,1.2,3,3.91,3,4.4,0,5.4-2.67,5.4-5.31Z"/><path class="cls-1" d="M176.09,28.47c0-1.36,0-2.73,0-4.09h2.18c0,.42.1,2,.1,3.49A6.42,6.42,0,0,1,184.5,24v2.22c-3.46,0-6.16,2.25-6.16,6.71v6.5h-2.25Z"/><path class="cls-1" d="M201.76,31.89c0,4-2.55,7.93-7.89,7.93-4.92,0-7.75-3.76-7.75-7.91A7.62,7.62,0,0,1,194,24C199,24,201.76,27.85,201.76,31.89Zm-13.32,0c0,3,2,6,5.51,6,3.7,0,5.48-2.74,5.48-6s-2-6-5.56-6S188.44,28.7,188.44,31.91Z"/><path class="cls-1" d="M205.72,39.4V16.9H208V39.4Z"/><path class="cls-1" d="M227.49,31.89c0,4-2.55,7.93-7.89,7.93-4.93,0-7.76-3.76-7.76-7.91A7.62,7.62,0,0,1,219.73,24C224.73,24,227.49,27.85,227.49,31.89Zm-13.33,0c0,3,2,6,5.52,6,3.7,0,5.48-2.74,5.48-6s-2-6-5.56-6S214.16,28.7,214.16,31.91Z"/></svg>