<svg id="Layer_1" data-name="Layer 1" xmlns="http://www.w3.org/2000/svg" viewBox="0 0 967.42 424.37"><defs><style>.cls-1{fill:#fff;}.cls-2{fill:none;stroke-width:9.98px;}.cls-2,.cls-3{stroke:#fff;stroke-miterlimit:10;}.cls-3{stroke-width:4px;}</style></defs><title>logoName</title><path class="cls-1" d="M309.5,214a148.52,148.52,0,1,1-105,43.5,147.55,147.55,0,0,1,105-43.5m0-10A158.5,158.5,0,1,0,468,362.5,158.5,158.5,0,0,0,309.5,204Z" transform="translate(-151 -158.29)"/><path class="cls-2" d="M406,427.58a116.4,116.4,0,1,1,0-130.16" transform="translate(-151 -158.29)"/><path class="cls-2" d="M374.71,317.05a79.57,79.57,0,1,1-138,78.09" transform="translate(-151 -158.29)"/><path class="cls-3" d="M584.21,278.57c-5.76,20.16-18.82,28.22-36.29,28.22-25,0-40.32-19.2-40.32-49.92,0-30.14,16.9-50.11,41.28-50.11,20.93,0,32.26,14.21,35.33,29h-4c-3.84-14.4-13.06-25.54-31.68-25.54-24.58,0-36.87,21.89-36.87,46.66,0,26.5,12.1,46.46,36.48,46.46,16.51,0,27.07-8.83,32.26-24.76Z" transform="translate(-151 -158.29)"/><path class="cls-3" d="M673.29,283c0,12.1.58,19,1,21.51h-3.84a174,174,0,0,1-1-21.32c-5.18,16.13-17.28,23.62-34.75,23.62-23,0-32.06-13.63-32.06-27.26,0-20.55,15.93-29,42.62-29,11,0,17.28,0,24.19.19V237.29c0-13.83-5.76-27.08-28.41-27.08-21.12,0-28.42,10.56-29.76,25.16h-3.84c.77-13.83,8.45-28.61,33.79-28.61,22.85,0,32.06,12.67,32.06,29.37Zm-3.84-28.8c-6.52-.19-14.4-.19-24.38-.19-25.92,0-38.4,8.26-38.4,25.34,0,14.79,11.71,23.81,28.22,23.81,22.28,0,34.56-13.63,34.56-39.74Z" transform="translate(-151 -158.29)"/><path class="cls-3" d="M706.7,241.7c0-20.93,0-26.69-.19-32.64h3.65c.38,4.8.38,15.75.38,27.65,4.8-16.7,20.74-29.38,36.1-30v3.84c-19.59.77-36.1,20.35-36.1,42.43v51.46H706.7Z" transform="translate(-151 -158.29)"/><path class="cls-3" d="M839.76,256.68c0,32.06-16.9,50.5-42.24,50.5-25.15,0-41.28-19.4-41.28-50.12,0-33,18.62-50.69,42.24-50.69C821.9,206.37,839.76,224.81,839.76,256.68Zm-79.49.19c0,25.34,12.67,46.85,37.25,46.85,24.77,0,38.21-20.16,38.21-46.85,0-25.73-13.25-47-37.64-47C773.32,209.83,760.27,231.72,760.27,256.87Z" transform="translate(-151 -158.29)"/><path class="cls-3" d="M865.67,304.49V160.29h3.84v144.2Z" transform="translate(-151 -158.29)"/><path class="cls-3" d="M902.92,160.29h3.84v17.48h-3.84Zm0,48.77h3.84v95.43h-3.84Z" transform="translate(-151 -158.29)"/><path class="cls-3" d="M939.4,232.29c0-9.4-.19-21.12-.19-23.23H943c.2,4.42.39,12.67.2,24,3.45-10.37,13.25-26.3,36.29-26.3,15.93,0,32.25,9.21,32.25,36.86v60.87h-4V244c0-19-9.22-33.6-28.8-33.6-22.85,0-35.71,19.2-35.71,41.66v52.42H939.4Z" transform="translate(-151 -158.29)"/><path class="cls-3" d="M1041.54,255.72c0,29.76,14.79,47.23,35.52,47.23,18.82,0,27.84-10.17,33.41-22.66h3.84c-5.76,15-16.7,26.12-37.06,26.12-29.37,0-39.55-26.31-39.55-49.92,0-30.53,16.51-49.73,39.94-49.73,29.57,0,38.78,25.92,38.78,44.16a40.55,40.55,0,0,1-.19,4.8Zm71.23-3.46c0-23-11.52-42-35.32-42-21.12,0-34.57,17.48-35.72,42Z" transform="translate(-151 -158.29)"/><path class="cls-3" d="M510.92,462.49V348.34h3V462.49Z" transform="translate(-151 -158.29)"/><path class="cls-3" d="M600.59,424.64c0,25.38-13.37,40-33.43,40-19.91,0-32.68-15.36-32.68-39.67,0-26.15,14.74-40.13,33.44-40.13C586.46,384.82,600.59,399.41,600.59,424.64Zm-62.92.15c0,20.07,10,37.09,29.49,37.09s30.24-16,30.24-37.09c0-20.36-10.48-37.24-29.79-37.24C548,387.55,537.67,404.88,537.67,424.79Z" transform="translate(-151 -158.29)"/><path class="cls-3" d="M621.12,405.34c0-7.45-.16-16.72-.16-18.39h3c.16,3.49.31,10,.16,19,2.73-8.21,10.48-20.83,28.72-20.83,12.62,0,25.54,7.3,25.54,29.19v48.18h-3.19V414.61c0-15.05-7.3-26.6-22.8-26.6-18.09,0-28.27,15.2-28.27,33v41.5h-3Z" transform="translate(-151 -158.29)"/><path class="cls-3" d="M761.26,459.9c0,24.17-7.6,37.85-32.23,37.85-18.08,0-26.9-10.34-28.57-21.74h3c2.28,11.1,10.79,19,25.69,19,22.64,0,29-12.61,29-35.56V442.73c-4,12.92-13.23,19.76-27.67,19.76-17.78,0-31.46-14-31.46-37.7,0-26.44,16.26-39.67,32.83-39.67s24,9.43,26.45,18.39c0-8.36.15-15.5.15-16.56h2.89c0,1.82-.15,10.64-.15,20.52Zm-59-35.26c0,22.34,12.77,35,28.43,35,22.64,0,27.66-17.94,27.66-36.33,0-15-2.43-35.26-26.6-35.26C713.68,388,702.28,403.36,702.28,424.64Z" transform="translate(-151 -158.29)"/><path class="cls-3" d="M502.22,571c1.12,5.55,4.35,8.32,10.82,8.32,6.67,0,9.84-3.43,9.84-7.59s-1.72-6.6-10.17-8.84c-8.25-2.18-10.09-4.56-10.09-8.78s3.16-8,10.16-8c6.73,0,10.36,4,10.89,8.91h-1.32c-.53-3.63-2.91-7.72-9.64-7.72-6.33,0-8.77,3.3-8.77,6.67,0,3.82,1.78,5.87,9.3,7.78,8.58,2.18,11,5,11,9.84,0,5.48-4.42,8.91-11.22,8.91-7.72,0-11.22-3.7-12.14-9.51Z" transform="translate(-151 -158.29)"/><path class="cls-3" d="M528,547h6.14V536.06h1.32V547h8.19v1.18h-8.19V573c0,3.56.73,6.2,4.82,6.2a8.11,8.11,0,0,0,2.64-.33V580a7.72,7.72,0,0,1-2.71.4c-4.35,0-6.07-1.92-6.07-7.79V548.13H528Z" transform="translate(-151 -158.29)"/><path class="cls-3" d="M573.69,570.77c0,3.23.07,7.52.07,9h-1.32c-.07-.47-.2-4.89-.13-8.12-1.52,5-5.22,8.78-11.75,8.78-4.62,0-11.35-2.12-11.35-12.35V547h1.32v21.64c0,5.41,2.84,10.56,10.1,10.56,6.79,0,11.68-4.62,11.68-14.19V547h1.38Z" transform="translate(-151 -158.29)"/><path class="cls-3" d="M609.86,530.18v41.71c0,2.31.07,5.94.07,7.86h-1.26c-.06-1.13-.13-4.76-.13-8.25-1.52,4.81-4.75,9-12.41,9-7.12,0-13.53-5.61-13.53-16.83,0-11.88,6.87-17.56,14.39-17.56,8.12,0,10.76,5.61,11.55,7.79V530.18ZM584,563.58c0,9.9,5.21,15.7,12.21,15.7,8.12,0,12.47-5.54,12.47-16.63,0-9.7-3.83-15.24-11.81-15.24S584,554.34,584,563.58Z" transform="translate(-151 -158.29)"/><path class="cls-3" d="M620.09,563c0,10.23,5.08,16.24,12.21,16.24,6.47,0,9.57-3.5,11.48-7.79h1.32c-2,5.15-5.74,9-12.73,9-10.1,0-13.6-9-13.6-17.16,0-10.5,5.68-17.1,13.73-17.1,10.16,0,13.33,8.91,13.33,15.18a12.93,12.93,0,0,1-.07,1.65Zm24.49-1.19c0-7.91-4-14.45-12.15-14.45-7.26,0-11.88,6-12.27,14.45Z" transform="translate(-151 -158.29)"/><path class="cls-3" d="M654.94,554.93c0-3.23-.07-7.26-.07-8h1.32c.07,1.51.14,4.35.07,8.25,1.19-3.57,4.55-9.05,12.47-9.05,5.48,0,11.09,3.17,11.09,12.68v20.92h-1.39V559c0-6.54-3.16-11.55-9.9-11.55-7.85,0-12.27,6.6-12.27,14.32v18h-1.32Z" transform="translate(-151 -158.29)"/><path class="cls-3" d="M685.63,547h6.14V536.06h1.32V547h8.18v1.18h-8.18V573c0,3.56.72,6.2,4.81,6.2a8.11,8.11,0,0,0,2.64-.33V580a7.63,7.63,0,0,1-2.7.4c-4.36,0-6.07-1.92-6.07-7.79V548.13h-6.14Z" transform="translate(-151 -158.29)"/><path class="cls-3" d="M720.67,579.75v-7.4H722v7.4Z" transform="translate(-151 -158.29)"/><path class="cls-3" d="M769.77,570.84c-2,6.93-6.46,9.7-12.47,9.7-8.58,0-13.86-6.6-13.86-17.16,0-10.36,5.81-17.23,14.19-17.23,7.19,0,11.09,4.89,12.14,10h-1.38c-1.32-5-4.49-8.78-10.89-8.78-8.45,0-12.67,7.53-12.67,16,0,9.11,4.16,16,12.54,16,5.67,0,9.3-3,11.08-8.51Z" transform="translate(-151 -158.29)"/><path class="cls-3" d="M804.69,563.31c0,11-5.81,17.36-14.52,17.36S776,574,776,563.44c0-11.35,6.4-17.42,14.52-17.42S804.69,552.36,804.69,563.31Zm-27.32.07c0,8.71,4.35,16.1,12.8,16.1s13.13-6.93,13.13-16.1c0-8.84-4.55-16.17-12.93-16.17S777.37,554.73,777.37,563.38Z" transform="translate(-151 -158.29)"/><path class="cls-3" d="M838.54,530.18v41.71c0,2.31.07,5.94.07,7.86h-1.25c-.07-1.13-.14-4.76-.14-8.25-1.51,4.81-4.75,9-12.4,9-7.13,0-13.53-5.61-13.53-16.83,0-11.88,6.86-17.56,14.39-17.56,8.11,0,10.75,5.61,11.54,7.79V530.18Zm-25.87,33.4c0,9.9,5.22,15.7,12.21,15.7,8.12,0,12.48-5.54,12.48-16.63,0-9.7-3.83-15.24-11.82-15.24S812.67,554.34,812.67,563.58Z" transform="translate(-151 -158.29)"/><path class="cls-3" d="M848.78,563c0,10.23,5.08,16.24,12.2,16.24,6.47,0,9.57-3.5,11.49-7.79h1.32c-2,5.15-5.74,9-12.74,9-10.1,0-13.59-9-13.59-17.16,0-10.5,5.67-17.1,13.72-17.1,10.17,0,13.33,8.91,13.33,15.18a15.07,15.07,0,0,1-.06,1.65Zm24.48-1.19c0-7.91-4-14.45-12.14-14.45-7.26,0-11.88,6-12.28,14.45Z" transform="translate(-151 -158.29)"/><path class="cls-3" d="M883.62,558.17c0-7.2,0-9.18-.06-11.22h1.25c.13,1.65.13,5.41.13,9.5,1.65-5.74,7.13-10.1,12.41-10.3v1.32c-6.73.27-12.41,7-12.41,14.59v17.69h-1.32Z" transform="translate(-151 -158.29)"/><path class="cls-3" d="M899,579.75v-7.4h1.32v7.4Z" transform="translate(-151 -158.29)"/><path class="cls-3" d="M948.1,570.84c-2,6.93-6.47,9.7-12.47,9.7-8.58,0-13.86-6.6-13.86-17.16,0-10.36,5.81-17.23,14.19-17.23,7.19,0,11.08,4.89,12.14,10h-1.39c-1.31-5-4.48-8.78-10.88-8.78-8.45,0-12.67,7.53-12.67,16,0,9.11,4.15,16,12.53,16,5.68,0,9.31-3,11.09-8.51Z" transform="translate(-151 -158.29)"/><path class="cls-3" d="M956.35,558.17c0-7.2,0-9.18-.06-11.22h1.25c.13,1.65.13,5.41.13,9.5,1.65-5.74,7.13-10.1,12.41-10.3v1.32c-6.73.27-12.41,7-12.41,14.59v17.69h-1.32Z" transform="translate(-151 -158.29)"/><path class="cls-3" d="M974.7,563c0,10.23,5.08,16.24,12.21,16.24,6.47,0,9.57-3.5,11.48-7.79h1.32c-2,5.15-5.74,9-12.74,9-10.09,0-13.59-9-13.59-17.16,0-10.5,5.68-17.1,13.73-17.1,10.16,0,13.33,8.91,13.33,15.18a12.93,12.93,0,0,1-.07,1.65Zm24.48-1.19c0-7.91-4-14.45-12.14-14.45-7.26,0-11.88,6-12.27,14.45Z" transform="translate(-151 -158.29)"/><path class="cls-3" d="M1031.06,572.35a58.79,58.79,0,0,0,.33,7.4h-1.32a60.05,60.05,0,0,1-.33-7.33c-1.78,5.54-5.94,8.12-11.94,8.12-7.92,0-11-4.69-11-9.37,0-7.07,5.47-10,14.65-10,3.76,0,5.94,0,8.31.07v-4.62c0-4.75-2-9.31-9.76-9.31-7.26,0-9.77,3.63-10.23,8.65h-1.32c.26-4.75,2.9-9.84,11.61-9.84,7.86,0,11,4.36,11,10.1Zm-1.32-9.89c-2.24-.07-5-.07-8.38-.07-8.91,0-13.2,2.84-13.2,8.71,0,5.08,4,8.18,9.7,8.18,7.66,0,11.88-4.68,11.88-13.66Z" transform="translate(-151 -158.29)"/><path class="cls-3" d="M1037.14,547h6.13V536.06h1.32V547h8.19v1.18h-8.19V573c0,3.56.73,6.2,4.82,6.2a8.11,8.11,0,0,0,2.64-.33V580a7.7,7.7,0,0,1-2.7.4c-4.36,0-6.08-1.92-6.08-7.79V548.13h-6.13Z" transform="translate(-151 -158.29)"/><path class="cls-3" d="M1085.05,563.31c0,11-5.81,17.36-14.52,17.36s-14.19-6.67-14.19-17.23c0-11.35,6.4-17.42,14.52-17.42S1085.05,552.36,1085.05,563.31Zm-27.32.07c0,8.71,4.35,16.1,12.8,16.1s13.13-6.93,13.13-16.1c0-8.84-4.55-16.17-12.93-16.17S1057.73,554.73,1057.73,563.38Z" transform="translate(-151 -158.29)"/><path class="cls-3" d="M1094,558.17c0-7.2,0-9.18-.06-11.22h1.25c.13,1.65.13,5.41.13,9.5,1.65-5.74,7.13-10.1,12.41-10.3v1.32c-6.73.27-12.41,7-12.41,14.59v17.69H1094Z" transform="translate(-151 -158.29)"/><path class="cls-3" d="M1109.34,579.75v-7.4h1.32v7.4Z" transform="translate(-151 -158.29)"/></svg>