<svg id="Layer_2" data-name="Layer 2" xmlns="http://www.w3.org/2000/svg" viewBox="0 0 979.62 192"><defs><style>.cls-1{fill:#fff;}.cls-2{fill:none;stroke-width:6.04px;}.cls-2,.cls-3{stroke:#fff;stroke-miterlimit:10;}.cls-3{stroke-width:2.84px;}</style></defs><title>otherTop</title><path class="cls-1" d="M274,294A90,90,0,1,1,184,384,90.05,90.05,0,0,1,274,294m0-6.05a96,96,0,1,0,96,96,96,96,0,0,0-96-96Z" transform="translate(-178 -287.99)"/><path class="cls-2" d="M332.45,423.41a70.51,70.51,0,1,1,0-78.83" transform="translate(-178 -287.99)"/><path class="cls-2" d="M313.49,356.47a48.19,48.19,0,1,1-83.55,47.29" transform="translate(-178 -287.99)"/><path class="cls-3" d="M501.17,399.54c-4.09,14.3-13.35,20-25.75,20-17.71,0-28.61-13.62-28.61-35.42,0-21.39,12-35.56,29.29-35.56,14.85,0,22.89,10.09,25.07,20.58h-2.86C495.58,358.94,489,351,475.83,351c-17.44,0-26.16,15.53-26.16,33.1,0,18.8,8.58,33,25.89,33,11.71,0,19.2-6.27,22.88-17.57Z" transform="translate(-178 -287.99)"/><path class="cls-3" d="M564.37,402.67a120.94,120.94,0,0,0,.68,15.26h-2.72a123.53,123.53,0,0,1-.68-15.13C558,414.25,549.39,419.56,537,419.56c-16.35,0-22.75-9.67-22.75-19.34,0-14.58,11.31-20.57,30.24-20.57,7.77,0,12.26,0,17.17.13v-9.53c0-9.81-4.09-19.21-20.16-19.21-15,0-20.17,7.49-21.12,17.84h-2.72c.54-9.81,6-20.3,24-20.3,16.21,0,22.75,9,22.75,20.85Zm-2.72-20.44c-4.63-.13-10.22-.13-17.3-.13-18.39,0-27.25,5.86-27.25,18,0,10.49,8.31,16.89,20,16.89,15.8,0,24.52-9.67,24.52-28.2Z" transform="translate(-178 -287.99)"/><path class="cls-3" d="M588.07,373.38c0-14.85,0-18.94-.13-23.16h2.58c.28,3.41.28,11.17.28,19.62,3.4-11.86,14.71-20.85,25.61-21.26v2.73c-13.9.54-25.61,14.44-25.61,30.11v36.51h-2.73Z" transform="translate(-178 -287.99)"/><path class="cls-3" d="M682.48,384c0,22.75-12,35.83-30,35.83s-29.29-13.76-29.29-35.55c0-23.43,13.21-36,30-36S682.48,361.39,682.48,384Zm-56.4.14c0,18,9,33.24,26.43,33.24s27.11-14.3,27.11-33.24c0-18.25-9.4-33.38-26.7-33.38C635.34,350.76,626.08,366.29,626.08,384.14Z" transform="translate(-178 -287.99)"/><path class="cls-3" d="M700.87,417.93V315.62h2.72V417.93Z" transform="translate(-178 -287.99)"/><path class="cls-3" d="M727.29,315.62H730V328h-2.72Zm0,34.6H730v67.71h-2.72Z" transform="translate(-178 -287.99)"/><path class="cls-3" d="M753.17,366.7c0-6.67-.14-15-.14-16.48h2.73c.13,3.13.27,9,.13,17,2.46-7.36,9.4-18.67,25.75-18.67,11.31,0,22.89,6.54,22.89,26.16v43.19h-2.86V375c0-13.48-6.54-23.84-20.44-23.84-16.21,0-25.34,13.63-25.34,29.56v37.2h-2.72Z" transform="translate(-178 -287.99)"/><path class="cls-3" d="M825.64,383.32c0,21.12,10.49,33.52,25.2,33.52,13.36,0,19.76-7.22,23.71-16.08h2.72c-4.08,10.63-11.85,18.53-26.29,18.53-20.84,0-28.06-18.66-28.06-35.42,0-21.66,11.71-35.29,28.33-35.29,21,0,27.52,18.4,27.52,31.34a27.62,27.62,0,0,1-.14,3.4Zm50.54-2.45c0-16.35-8.17-29.83-25.06-29.83-15,0-24.52,12.39-25.34,29.83Z" transform="translate(-178 -287.99)"/><path class="cls-3" d="M928.78,417.93V314.29h2.76V417.93Z" transform="translate(-178 -287.99)"/><path class="cls-3" d="M1010.19,383.56c0,23.05-12.14,36.3-30.36,36.3s-29.67-13.94-29.67-36c0-23.74,13.39-36.43,30.36-36.43S1010.19,360.66,1010.19,383.56Zm-57.13.14c0,18.22,9.11,33.67,26.77,33.67s27.46-14.49,27.46-33.67c0-18.49-9.52-33.81-27-33.81C962.44,349.89,953.06,365.62,953.06,383.7Z" transform="translate(-178 -287.99)"/><path class="cls-3" d="M1028.82,366c0-6.76-.14-15.18-.14-16.7h2.76c.14,3.17.28,9.11.14,17.25,2.49-7.45,9.52-18.91,26.08-18.91,11.46,0,23.19,6.63,23.19,26.5v43.75H1078V374.46c0-13.67-6.62-24.15-20.7-24.15-16.42,0-25.67,13.8-25.67,29.94v37.68h-2.76Z" transform="translate(-178 -287.99)"/><path class="cls-3" d="M1156.06,415.58c0,21.94-6.9,34.36-29.26,34.36-16.42,0-24.42-9.38-25.94-19.73h2.76c2.07,10.07,9.8,17.25,23.32,17.25,20.56,0,26.36-11.46,26.36-32.29V400c-3.59,11.73-12,17.94-25.12,17.94-16.14,0-28.56-12.7-28.56-34.23,0-24,14.76-36,29.8-36s21.81,8.56,24,16.7c0-7.59.13-14.07.13-15h2.63c0,1.66-.14,9.66-.14,18.63Zm-53.55-32c0,20.29,11.6,31.74,25.81,31.74,20.56,0,25.12-16.28,25.12-33,0-13.66-2.21-32-24.15-32C1112.86,350.31,1102.51,364.24,1102.51,383.56Z" transform="translate(-178 -287.99)"/></svg>