<svg xmlns="http://www.w3.org/2000/svg" xmlns:xlink="http://www.w3.org/1999/xlink" viewBox="0 0 1367 769"><defs><style>.cls-1{stroke:#000005;fill:url(#radial-gradient);}.cls-2{fill:#fff;}.cls-3{fill:none;stroke:#fcfcfc;stroke-miterlimit:10;stroke-width:6.39px;}</style><radialGradient id="radial-gradient" cx="692.69" cy="386.54" fx="674.2632378594243" fy="367.38638204098777" r="554.05" gradientUnits="userSpaceOnUse"><stop offset="0" stop-color="#fff"/><stop offset="0.02" stop-color="#ededed"/><stop offset="0.09" stop-color="#bcbcbc"/><stop offset="0.17" stop-color="#8f8f8f"/><stop offset="0.25" stop-color="#696969"/><stop offset="0.34" stop-color="#484848"/><stop offset="0.43" stop-color="#2e2e2e"/><stop offset="0.53" stop-color="#191919"/><stop offset="0.64" stop-color="#0b0b0b"/><stop offset="0.78" stop-color="#030303"/><stop offset="1"/></radialGradient></defs><title>webOpen</title><g id="Layer_2" data-name="Layer 2"><rect class="cls-1" x="0.5" y="0.5" width="1366" height="768"/><path class="cls-2" d="M579.69,139.27c-2.59,9-10.42,16.77-24.05,16.77-17.45,0-26.08-12-26.08-26.33,0-14.49,9.75-26.78,26.24-26.78,16.08,0,22.57,10.12,23.83,17.13h-7.56c-2-5.25-6.36-10.73-16.49-10.73-11.27,0-18.25,8.42-18.25,20.2,0,11.17,6.69,20.09,18.32,20.09,8.85,0,13.81-4.23,16.48-10.35Z" transform="translate(0 1)"/><path class="cls-2" d="M635,142.68c0,4.41.3,10.78.48,12h-7.22a56.35,56.35,0,0,1-.6-7.85c-2.64,5.47-8.3,9.25-19.31,9.25-14.36,0-19.48-8.69-19.48-16.08,0-12.78,11.73-16.32,25.95-16.32h12.77v-3c0-5.92-2.54-11.6-14.23-11.6-10.44,0-12.93,4.73-14,9.85h-7.55c.65-6.8,5.15-16,21.63-16,17.26,0,21.6,8.55,21.6,16.83Zm-7.41-13.32H615c-12.55,0-18.63,2.68-18.63,10.22,0,5.51,4,10.18,13.11,10.18,14.71,0,18.07-8.92,18.07-17.79Z" transform="translate(0 1)"/><path class="cls-2" d="M652.55,118c0-4.53,0-9.15-.1-13.68h7.32c.13,1.4.33,6.61.33,11.7,3.39-8,11-13.13,20.64-13.08v7.45c-11.61-.12-20.64,7.53-20.64,22.48v21.76h-7.55Z" transform="translate(0 1)"/><path class="cls-2" d="M738.58,129.48C738.58,143,730,156,712.14,156c-16.51,0-26-12.58-26-26.48,0-14.6,10.12-26.63,26.44-26.63C729.35,102.93,738.58,115.94,738.58,129.48Zm-44.65.08c0,10.05,6.61,20,18.48,20,12.4,0,18.37-9.17,18.37-19.93s-6.76-20.18-18.64-20.18C699.89,109.43,693.93,118.79,693.93,129.56Z" transform="translate(0 1)"/><path class="cls-2" d="M751.83,154.64V79.24h7.55v75.4Z" transform="translate(0 1)"/><path class="cls-2" d="M824.78,129.48c0,13.53-8.55,26.56-26.44,26.56-16.51,0-26-12.58-26-26.48,0-14.6,10.12-26.63,26.44-26.63C815.55,102.93,824.78,115.94,824.78,129.48Zm-44.65.08c0,10.05,6.61,20,18.48,20,12.4,0,18.36-9.17,18.36-19.93s-6.76-20.18-18.63-20.18C786.09,109.43,780.13,118.79,780.13,129.56Z" transform="translate(0 1)"/></g><g id="Layer_1" data-name="Layer 1"><circle class="cls-3" cx="676.54" cy="376.52" r="171.51"/><path class="cls-3" d="M781,445.94a126,126,0,1,1,0-140.84" transform="translate(0 1)"/><path class="cls-3" d="M747.11,326.34a86.1,86.1,0,1,1-149.28,84.51" transform="translate(0 1)"/></g></svg>